<svg class="svg-icon" style="width: 1.0263671875em; height: 1em;vertical-align: middle;fill: currentColor;overflow: hidden;" viewBox="0 0 1051 1024" version="1.1" xmlns="http://www.w3.org/2000/svg"><path d="M996.144762 537.173333a56.380952 56.380952 0 0 0-55.649524 55.649524V694.857143a50.529524 50.529524 0 0 1-48.761905 48.761905H187.184762l74.300952-74.361905a57.417143 57.417143 0 0 0 0-78.811429 57.417143 57.417143 0 0 0-78.811428 0l-167.009524 169.20381a57.417143 57.417143 0 0 0 0 78.811428L182.857143 1007.725714a55.954286 55.954286 0 0 0 78.811428 0 57.417143 57.417143 0 0 0 0-78.811428l-74.483809-74.179048H889.295238a159.817143 159.817143 0 0 0 159.939048-157.622857v-104.228571a51.687619 51.687619 0 0 0-53.089524-55.649524zM1036.190476 184.807619L869.241905 15.664762a57.417143 57.417143 0 0 0-78.811429 0 57.417143 57.417143 0 0 0 0 78.811428l74.179048 74.179048H159.939048A158.47619 158.47619 0 0 0 0 325.241905v105.325714a56.380952 56.380952 0 0 0 55.649524 55.649524 56.380952 56.380952 0 0 0 55.649524-55.649524V326.278095a50.529524 50.529524 0 0 1 48.761904-48.761905h704.609524l-74.300952 74.24a57.417143 57.417143 0 0 0 0 78.811429 55.954286 55.954286 0 0 0 78.811428 0L1036.190476 261.485714a54.857143 54.857143 0 0 0 0-76.678095z" fill="#467CFD" /></svg>